<?xml version="1.0" encoding="UTF-8"?>
<svg width="174px" height="46px" viewBox="0 0 174 46" version="1.1" xmlns="http://www.w3.org/2000/svg" xmlns:xlink="http://www.w3.org/1999/xlink">
    <!-- Generator: Sketch 51.2 (57519) - http://www.bohemiancoding.com/sketch -->
    <title>cb-logo-2</title>
    <desc>Created with Sketch.</desc>
    <defs></defs>
    <g id="Page-1" stroke="none" stroke-width="1" fill="none" fill-rule="evenodd">
        <g id="cb-logo-2">
            <path d="M81.1,28.885 C81.3200011,28.885 81.5099992,28.9699992 81.67,29.14 L83.26,30.865 C82.3799956,31.9550055 81.2975064,32.7899971 80.0125,33.37 C78.7274936,33.9500029 77.185009,34.24 75.385,34.24 C73.774992,34.24 72.3275064,33.9650028 71.0425,33.415 C69.7574936,32.8649973 68.6600045,32.1000049 67.75,31.12 C66.8399955,30.1399951 66.1425024,28.9700068 65.6575,27.61 C65.1724976,26.2499932 64.93,24.7650081 64.93,23.155 C64.93,21.5249919 65.1999973,20.0325068 65.74,18.6775 C66.2800027,17.3224932 67.0399951,16.1550049 68.02,15.175 C69.0000049,14.1949951 70.1724932,13.4325027 71.5375,12.8875 C72.9025068,12.3424973 74.4099918,12.07 76.06,12.07 C77.6700081,12.07 79.077494,12.3274974 80.2825,12.8425 C81.487506,13.3575026 82.5199957,14.0399958 83.38,14.89 L82.03,16.765 C81.9499996,16.8850006 81.8475006,16.9899996 81.7225,17.08 C81.5974994,17.1700005 81.4250011,17.215 81.205,17.215 C80.9749988,17.215 80.7400012,17.1250009 80.5,16.945 C80.2599988,16.7649991 79.9550019,16.5700011 79.585,16.36 C79.2149981,16.149999 78.7475028,15.9550009 78.1825,15.775 C77.6174972,15.5949991 76.9000044,15.505 76.03,15.505 C75.0099949,15.505 74.0725043,15.6824982 73.2175,16.0375 C72.3624957,16.3925018 71.6275031,16.8999967 71.0125,17.56 C70.3974969,18.2200033 69.9175017,19.0224953 69.5725,19.9675 C69.2274983,20.9125047 69.055,21.9749941 69.055,23.155 C69.055,24.3750061 69.2274983,25.4599953 69.5725,26.41 C69.9175017,27.3600048 70.384997,28.1599968 70.975,28.81 C71.5650029,29.4600033 72.259996,29.9574983 73.06,30.3025 C73.860004,30.6475017 74.7199954,30.82 75.64,30.82 C76.1900028,30.82 76.6874978,30.7900003 77.1325,30.73 C77.5775022,30.6699997 77.9874981,30.5750007 78.3625,30.445 C78.7375019,30.3149994 79.0924983,30.147501 79.4275,29.9425 C79.7625017,29.737499 80.0949983,29.4850015 80.425,29.185 C80.5250005,29.0949996 80.6299994,29.0225003 80.74,28.9675 C80.8500006,28.9124997 80.9699993,28.885 81.1,28.885 Z M86.095,34 L86.095,11.71 L89.8,11.71 L89.8,20.275 C90.400003,19.7049972 91.0599964,19.2450018 91.78,18.895 C92.5000036,18.5449983 93.3449952,18.37 94.315,18.37 C95.1550042,18.37 95.8999967,18.5124986 96.55,18.7975 C97.2000033,19.0825014 97.7424978,19.4824974 98.1775,19.9975 C98.6125022,20.5125026 98.9424989,21.1274964 99.1675,21.8425 C99.3925011,22.5575036 99.505,23.3449957 99.505,24.205 L99.505,34 L95.8,34 L95.8,24.205 C95.8,23.2649953 95.5825022,22.5375026 95.1475,22.0225 C94.7124978,21.5074974 94.0600043,21.25 93.19,21.25 C92.5499968,21.25 91.9500028,21.3949986 91.39,21.685 C90.8299972,21.9750015 90.3000025,22.3699975 89.8,22.87 L89.8,34 L86.095,34 Z M107.095,18.61 L107.095,34 L103.39,34 L103.39,18.61 L107.095,18.61 Z M107.65,14.125 C107.65,14.4450016 107.585001,14.7449986 107.455,15.025 C107.324999,15.3050014 107.152501,15.549999 106.9375,15.76 C106.722499,15.9700011 106.470001,16.1374994 106.18,16.2625 C105.889999,16.3875006 105.580002,16.45 105.25,16.45 C104.929998,16.45 104.627501,16.3875006 104.3425,16.2625 C104.057499,16.1374994 103.810001,15.9700011 103.6,15.76 C103.389999,15.549999 103.222501,15.3050014 103.0975,15.025 C102.972499,14.7449986 102.91,14.4450016 102.91,14.125 C102.91,13.7949984 102.972499,13.4850015 103.0975,13.195 C103.222501,12.9049986 103.389999,12.6550011 103.6,12.445 C103.810001,12.234999 104.057499,12.0675006 104.3425,11.9425 C104.627501,11.8174994 104.929998,11.755 105.25,11.755 C105.580002,11.755 105.889999,11.8174994 106.18,11.9425 C106.470001,12.0675006 106.722499,12.234999 106.9375,12.445 C107.152501,12.6550011 107.324999,12.9049986 107.455,13.195 C107.585001,13.4850015 107.65,13.7949984 107.65,14.125 Z M111.28,39.025 L111.28,18.61 L113.545,18.61 C113.785001,18.61 113.989999,18.6649995 114.16,18.775 C114.330001,18.8850006 114.44,19.0549989 114.49,19.285 L114.79,20.71 C115.410003,19.9999965 116.122496,19.4250022 116.9275,18.985 C117.732504,18.5449978 118.674995,18.325 119.755,18.325 C120.595004,18.325 121.362497,18.4999983 122.0575,18.85 C122.752503,19.2000018 123.352497,19.7074967 123.8575,20.3725 C124.362503,21.0375033 124.752499,21.8574951 125.0275,22.8325 C125.302501,23.8075049 125.44,24.9249937 125.44,26.185 C125.44,27.3350058 125.285002,28.3999951 124.975,29.38 C124.664998,30.3600049 124.222503,31.2099964 123.6475,31.93 C123.072497,32.6500036 122.377504,33.212498 121.5625,33.6175 C120.747496,34.022502 119.835005,34.225 118.825,34.225 C117.954996,34.225 117.217503,34.0925013 116.6125,33.8275 C116.007497,33.5624987 115.465002,33.1950024 114.985,32.725 L114.985,39.025 L111.28,39.025 Z M118.48,21.25 C117.709996,21.25 117.052503,21.4124984 116.5075,21.7375 C115.962497,22.0625016 115.455002,22.5199971 114.985,23.11 L114.985,30.01 C115.405002,30.5300026 115.862498,30.892499 116.3575,31.0975 C116.852502,31.302501 117.384997,31.405 117.955,31.405 C118.515003,31.405 119.022498,31.3000011 119.4775,31.09 C119.932502,30.879999 120.317498,30.5600022 120.6325,30.13 C120.947502,29.6999979 121.189999,29.1575033 121.36,28.5025 C121.530001,27.8474967 121.615,27.0750045 121.615,26.185 C121.615,25.2849955 121.542501,24.5225031 121.3975,23.8975 C121.252499,23.2724969 121.045001,22.765002 120.775,22.375 C120.504999,21.9849981 120.177502,21.7000009 119.7925,21.52 C119.407498,21.3399991 118.970002,21.25 118.48,21.25 Z M128.455,34 L128.455,12.31 L135.94,12.31 C137.360007,12.31 138.572495,12.4449987 139.5775,12.715 C140.582505,12.9850014 141.407497,13.3699975 142.0525,13.87 C142.697503,14.3700025 143.169998,14.9749965 143.47,15.685 C143.770002,16.3950036 143.92,17.1949956 143.92,18.085 C143.92,18.5950026 143.845001,19.0824977 143.695,19.5475 C143.544999,20.0125023 143.312502,20.447498 142.9975,20.8525 C142.682498,21.257502 142.282502,21.6249984 141.7975,21.955 C141.312498,22.2850017 140.735003,22.5649989 140.065,22.795 C143.045015,23.4650034 144.535,25.0749873 144.535,27.625 C144.535,28.5450046 144.360002,29.3949961 144.01,30.175 C143.659998,30.9550039 143.150003,31.6274972 142.48,32.1925 C141.809997,32.7575028 140.985005,33.1999984 140.005,33.52 C139.024995,33.8400016 137.905006,34 136.645,34 L128.455,34 Z M132.49,24.49 L132.49,30.85 L136.585,30.85 C137.335004,30.85 137.962497,30.7600009 138.4675,30.58 C138.972503,30.3999991 139.377498,30.1600015 139.6825,29.86 C139.987502,29.5599985 140.207499,29.210002 140.3425,28.81 C140.477501,28.409998 140.545,27.9850023 140.545,27.535 C140.545,27.0649977 140.470001,26.6425019 140.32,26.2675 C140.169999,25.8924981 139.935002,25.5725013 139.615,25.3075 C139.294998,25.0424987 138.885002,24.8400007 138.385,24.7 C137.884997,24.5599993 137.280004,24.49 136.57,24.49 L132.49,24.49 Z M132.49,21.7 L135.715,21.7 C137.085007,21.7 138.124996,21.4500025 138.835,20.95 C139.545004,20.4499975 139.9,19.6550055 139.9,18.565 C139.9,17.4349944 139.580003,16.6300024 138.94,16.15 C138.299997,15.6699976 137.300007,15.43 135.94,15.43 L132.49,15.43 L132.49,21.7 Z M154.36,18.37 C155.510006,18.37 156.552495,18.5549982 157.4875,18.925 C158.422505,19.2950019 159.219997,19.8199966 159.88,20.5 C160.540003,21.1800034 161.049998,22.0099951 161.41,22.99 C161.770002,23.9700049 161.95,25.064994 161.95,26.275 C161.95,27.4950061 161.770002,28.5949951 161.41,29.575 C161.049998,30.5550049 160.540003,31.3899966 159.88,32.08 C159.219997,32.7700035 158.422505,33.2999982 157.4875,33.67 C156.552495,34.0400019 155.510006,34.225 154.36,34.225 C153.209994,34.225 152.165005,34.0400019 151.225,33.67 C150.284995,33.2999982 149.482503,32.7700035 148.8175,32.08 C148.152497,31.3899966 147.637502,30.5550049 147.2725,29.575 C146.907498,28.5949951 146.725,27.4950061 146.725,26.275 C146.725,25.064994 146.907498,23.9700049 147.2725,22.99 C147.637502,22.0099951 148.152497,21.1800034 148.8175,20.5 C149.482503,19.8199966 150.284995,19.2950019 151.225,18.925 C152.165005,18.5549982 153.209994,18.37 154.36,18.37 Z M154.36,31.375 C155.640006,31.375 156.587497,30.9450043 157.2025,30.085 C157.817503,29.2249957 158.125,27.9650083 158.125,26.305 C158.125,24.6449917 157.817503,23.3800044 157.2025,22.51 C156.587497,21.6399957 155.640006,21.205 154.36,21.205 C153.059993,21.205 152.100003,21.6424956 151.48,22.5175 C150.859997,23.3925044 150.55,24.6549918 150.55,26.305 C150.55,27.9550083 150.859997,29.2124957 151.48,30.0775 C152.100003,30.9425043 153.059993,31.375 154.36,31.375 Z M169.9,34.24 C168.569993,34.24 167.545004,33.8625038 166.825,33.1075 C166.104996,32.3524962 165.745,31.3100067 165.745,29.98 L165.745,21.385 L164.185,21.385 C163.984999,21.385 163.812501,21.3200007 163.6675,21.19 C163.522499,21.0599994 163.45,20.8650013 163.45,20.605 L163.45,19.135 L165.925,18.73 L166.705,14.53 C166.745,14.329999 166.837499,14.1750006 166.9825,14.065 C167.127501,13.9549995 167.309999,13.9 167.53,13.9 L169.45,13.9 L169.45,18.745 L173.5,18.745 L173.5,21.385 L169.45,21.385 L169.45,29.725 C169.45,30.2050024 169.569999,30.5799987 169.81,30.85 C170.050001,31.1200014 170.369998,31.255 170.77,31.255 C171.000001,31.255 171.192499,31.2275003 171.3475,31.1725 C171.502501,31.1174997 171.637499,31.0600003 171.7525,31 C171.867501,30.9399997 171.97,30.8825003 172.06,30.8275 C172.15,30.7724997 172.24,30.745 172.33,30.745 C172.440001,30.745 172.53,30.7724997 172.6,30.8275 C172.67,30.8825003 172.745,30.9649995 172.825,31.075 L173.935,32.875 C173.394997,33.3250023 172.775004,33.6649989 172.075,33.895 C171.374997,34.1250012 170.650004,34.24 169.9,34.24 Z" id="ChipBot" fill="#000000"></path>
            <path d="M11.252035,40 L1.5,40 C0.671572875,40 1.01453063e-16,38.8484271 0,38.02 C-1.01453063e-16,37.1915729 0.671572875,36.04 1.5,36.04 L11,36.04 L11,25.48 L1.5,25.48 C0.671572875,25.48 4.6934861e-16,24.3284271 0,23.5 C-1.01453063e-16,22.6715729 0.671572875,21.52 1.5,21.52 L11,21.52 L11,10.96 L1.5,10.96 C0.671572875,10.96 1.01453063e-16,9.80842712 0,8.98 C-1.01453063e-16,8.15157288 0.671572875,7 1.5,7 L11.0618938,7 C11.5539918,3.05368842 14.9203823,7.49413605e-16 19,0 L49,0 C53.418278,-8.11624501e-16 57,3.581722 57,8 L57,38 C57,42.418278 53.418278,46 49,46 L19,46 C15.2723211,46 12.1401206,43.4504544 11.252035,40 Z M19.75,4 C17.1266474,4 15,6.19524897 15,8.90322581 L15,37.0967742 C15,39.804751 17.1266474,42 19.75,42 L48.25,42 C50.8733526,42 53,39.804751 53,37.0967742 L53,8.90322581 C53,6.19524897 50.8733526,4 48.25,4 L19.75,4 Z M22,8 L46,8 C47.6568542,8 49,9.34314575 49,11 L49,35 C49,36.6568542 47.6568542,38 46,38 L22,38 C20.3431458,38 19,36.6568542 19,35 L19,11 C19,9.34314575 20.3431458,8 22,8 Z M39.7878552,28.3777233 C39.6689665,28.3777233 39.5592247,28.4028724 39.4586265,28.4531715 C39.3580284,28.5034706 39.2620043,28.5697729 39.1705514,28.6520805 C38.8687569,28.9264391 38.5646807,29.1573542 38.2583136,29.3448325 C37.9519465,29.5323109 37.6272937,29.6854922 37.2843454,29.8043809 C36.9413971,29.9232697 36.566446,30.0101486 36.1594807,30.0650203 C35.7525154,30.119892 35.2975442,30.1473275 34.7945535,30.1473275 C33.953187,30.1473275 33.1667042,29.9895736 32.4350812,29.6740612 C31.7034582,29.3585488 31.0678703,28.9035776 30.5282984,28.309134 C29.9887264,27.7146903 29.5611907,26.9830783 29.2456783,26.114276 C28.9301659,25.2454738 28.772412,24.253225 28.772412,23.1375 C28.772412,22.0583561 28.9301659,21.086684 29.2456783,20.2224543 C29.5611907,19.3582247 30.0001579,18.6243264 30.562593,18.0207375 C31.1250282,17.4171485 31.7971967,16.9530322 32.5791187,16.6283745 C33.3610408,16.3037168 34.2183986,16.1413904 35.1512179,16.1413904 C35.9468578,16.1413904 36.6030223,16.2236967 37.1197311,16.3883119 C37.6364398,16.5529271 38.0639755,16.7312575 38.4023512,16.9233085 C38.7407268,17.1153596 39.0196538,17.29369 39.2391407,17.4583051 C39.4586276,17.6229203 39.6735386,17.7052267 39.8838802,17.7052267 C40.0850766,17.7052267 40.2428304,17.6640735 40.3571465,17.5817659 C40.4714626,17.4994583 40.5652004,17.4034342 40.6383627,17.2936908 L41.8729702,15.5789581 C41.0864755,14.8016087 40.1422388,14.1774522 39.0402317,13.7064699 C37.9382246,13.2354876 36.6510448,13 35.1786536,13 C33.6696812,13 32.2910499,13.2492053 31.0427182,13.7476235 C29.7943865,14.2460416 28.7221177,14.9433593 27.8258796,15.8395974 C26.9296414,16.7358356 26.23461,17.8035318 25.7407645,19.0427182 C25.246919,20.2819046 25,21.6468182 25,23.1375 C25,24.6098912 25.2217699,25.967946 25.6653163,27.211705 C26.1088627,28.455464 26.7467369,29.5254466 27.5789581,30.4216847 C28.4111792,31.3179228 29.4148594,32.0175268 30.5900288,32.5205176 C31.7651981,33.0235084 33.0889586,33.275 34.5613498,33.275 C36.2075015,33.275 37.6181408,33.0097907 38.7933102,32.479364 C39.9684796,31.9489374 40.9584421,31.1853173 41.7632273,30.1884811 L40.309134,28.6109269 C40.1628094,28.455457 39.9890515,28.3777233 39.7878552,28.3777233 Z" id="Combined-Shape" fill="#4856FF" fill-rule="nonzero"></path>
        </g>
    </g>
</svg>