<?xml version="1.0" encoding="UTF-8"?>
<svg width="16px" height="16px" viewBox="0 0 549 549" version="1.1" xmlns="http://www.w3.org/2000/svg" xmlns:xlink="http://www.w3.org/1999/xlink">
    <!-- Generator: Sketch 51.3 (57544) - http://www.bohemiancoding.com/sketch -->
    <title>cb-square-logo-dark</title>
    <desc>Created with Sketch.</desc>
    <defs></defs>
    <g id="Page-1" stroke="none" stroke-width="1" fill="none" fill-rule="evenodd">
        <g id="cb-square-logo-dark" fill-rule="nonzero">
            <rect id="Rectangle-8" fill="#4856FF" x="0" y="0" width="549" height="549" rx="50"></rect>
            <path d="M143.57982,391.855254 L76.3421053,391.855254 C70.6303182,391.855254 66,383.913568 66,378.200419 C66,372.48727 70.6303182,364.545584 76.3421053,364.545584 L141.842105,364.545584 L141.842105,291.719797 L76.3421053,291.719797 C70.6303182,291.719797 66,283.778111 66,278.064962 C66,272.351812 70.6303182,264.410127 76.3421053,264.410127 L141.842105,264.410127 L141.842105,191.58434 L76.3421053,191.58434 C70.6303182,191.58434 66,183.642654 66,177.929505 C66,172.216355 70.6303182,164.274669 76.3421053,164.274669 L142.268846,164.274669 C145.661733,137.0594 168.87211,116 197,116 L403.842105,116 C434.304969,116 459,140.700921 459,171.171051 L459,378.062491 C459,408.532621 434.304969,433.233542 403.842105,433.233542 L197,433.233542 C171.298635,433.233542 149.702936,415.650904 143.57982,391.855254 Z M202.171053,143.585525 C184.083727,143.585525 169.421053,158.724799 169.421053,177.40004 L169.421053,371.833502 C169.421053,390.508743 184.083727,405.648017 202.171053,405.648017 L398.671053,405.648017 C416.758378,405.648017 431.421053,390.508743 431.421053,371.833502 L431.421053,177.40004 C431.421053,158.724799 416.758378,143.585525 398.671053,143.585525 L202.171053,143.585525 Z M214,171.171051 L386.842105,171.171051 C396.230946,171.171051 403.842105,178.78221 403.842105,188.171051 L403.842105,361.062491 C403.842105,370.451332 396.230946,378.062491 386.842105,378.062491 L214,378.062491 C204.611159,378.062491 197,370.451332 197,361.062491 L197,188.171051 C197,178.78221 204.611159,171.171051 214,171.171051 Z M340.326791,311.703602 C339.507085,311.703602 338.750444,311.87704 338.056846,312.223922 C337.363248,312.570803 336.701187,313.028049 336.070644,313.595674 C333.989851,315.487755 331.893325,317.080234 329.781004,318.373156 C327.668684,319.666078 325.430288,320.722475 323.06575,321.542377 C320.701212,322.362279 318.116022,322.961429 315.310104,323.339845 C312.504185,323.718262 309.367279,323.907467 305.89929,323.907467 C300.09829,323.907467 294.675697,322.819536 289.631349,320.643643 C284.587001,318.467749 280.20479,315.330094 276.484584,311.230584 C272.764377,307.131073 269.816631,302.085598 267.641256,296.094006 C265.465881,290.102415 264.378209,283.259489 264.378209,275.565024 C264.378209,268.122836 265.465881,261.421814 267.641256,255.461757 C269.816631,249.5017 272.843194,244.440458 276.721036,240.277878 C280.598879,236.115298 285.233304,232.914575 290.62445,230.675612 C296.015597,228.436649 301.926853,227.317184 308.358397,227.317184 C313.844125,227.317184 318.368207,227.8848 321.930777,229.020049 C325.493348,230.155298 328.441094,231.385132 330.774105,232.709589 C333.107116,234.034047 335.030245,235.263881 336.543549,236.39913 C338.056854,237.534379 339.538609,238.101995 340.988859,238.101995 C342.376054,238.101995 343.463725,237.818187 344.251905,237.250563 C345.040084,236.682938 345.686381,236.020719 346.190816,235.263887 L354.703111,223.438436 C349.280437,218.077538 342.770173,213.773117 335.172124,210.525043 C327.574075,207.27697 318.699309,205.652958 308.547559,205.652958 C298.143592,205.652958 288.638291,207.371573 280.031373,210.808854 C271.424454,214.246136 264.031443,219.055104 257.852117,225.235904 C251.672791,231.416704 246.880732,238.779945 243.475798,247.325847 C240.070863,255.871749 238.368421,265.284714 238.368421,275.565024 C238.368421,285.719195 239.897466,295.084858 242.955602,303.662295 C246.013738,312.239732 250.411713,319.618739 256.149658,325.799539 C261.887604,331.980339 268.807715,336.805075 276.910198,340.273891 C285.012682,343.742707 294.139662,345.47709 304.291412,345.47709 C315.641194,345.47709 325.367182,343.648105 333.469665,339.99008 C341.572149,336.332056 348.39768,331.065841 353.946462,324.191278 L343.920871,313.311863 C342.912001,312.239683 341.713987,311.703602 340.326791,311.703602 Z" id="Combined-Shape" fill="#FFFFFF"></path>
        </g>
    </g>
</svg>